<svg width="73" height="87" viewBox="0 0 73 87" fill="none" xmlns="http://www.w3.org/2000/svg">
<g clip-path="url(#clip0_67_122)">
<path d="M56.51 42.49C61.47 44.43 69.88 51.87 68.26 64.16C66.75 76.13 59.74 86.27 43.13 86.27H0L10.24 24.37L24.8 18.76H1.51L7.33 0H49.06C65.88 0 73.21 11.54 72.14 23.62C70.95 36.88 62.11 41.09 56.5 42.49H56.51ZM26.42 53.06L24.26 67.29H36.34C41.73 67.29 44.32 63.73 44.32 60.17C44.32 56.61 41.73 53.05 36.66 53.05H26.42V53.06ZM32.24 18.77L30.08 30.74H41.94C46.68 30.74 49.16 27.72 49.16 24.7C49.16 21.68 46.9 18.77 42.15 18.77H32.23H32.24Z" fill="url(#paint0_linear_67_122)"/>
</g>
<defs>
<linearGradient id="paint0_linear_67_122" x1="0" y1="43.13" x2="72.24" y2="43.13" gradientUnits="userSpaceOnUse">
<stop stop-color="#F2EBF3" stop-opacity="0.3"/>
<stop offset="0.04" stop-color="#D3BEDA" stop-opacity="0.3"/>
<stop offset="0.07" stop-color="#C2A3CB" stop-opacity="0.3"/>
<stop offset="0.14" stop-color="#BD9CC7" stop-opacity="0.3"/>
<stop offset="0.45" stop-color="#4F4169" stop-opacity="0.8"/>
<stop offset="0.71" stop-color="#221D43"/>
</linearGradient>
<clipPath id="clip0_67_122">
<rect width="72.24" height="86.27" fill="white"/>
</clipPath>
</defs>
</svg>